<?xml version="1.0" encoding="UTF-8"?>
<svg id="Layer_2" data-name="Layer 2" xmlns="http://www.w3.org/2000/svg" viewBox="0 0 405.74 75.08">
  <defs>
    <style>
      .cls-1 {
        fill: #010101;
      }

      .cls-1, .cls-2, .cls-3 {
        stroke-width: 0px;
      }

      .cls-2 {
        fill: #18274f;
      }

      .cls-3 {
        fill: #273c87;
      }
    </style>
  </defs>
  <g id="Layer_1-2" data-name="Layer 1">
    <g>
      <g>
        <g>
          <path class="cls-1" d="m86.06,36.76V15.26h4.98v17.45h10.78v4.05h-15.76Z"/>
          <path class="cls-1" d="m106.76,36.76v-17.45h-6.88v-4.05h18.74v4.05h-6.88v17.45h-4.98Z"/>
          <path class="cls-1" d="m140.27,37.13c-1.66,0-3.2-.27-4.62-.81s-2.66-1.32-3.7-2.32c-1.04-1-1.86-2.18-2.44-3.53-.58-1.35-.88-2.83-.88-4.45s.29-3.1.88-4.45c.58-1.35,1.4-2.53,2.46-3.53,1.05-1,2.29-1.78,3.7-2.32,1.41-.54,2.96-.81,4.64-.81,1.86,0,3.55.32,5.05.97,1.5.65,2.77,1.59,3.79,2.84l-3.19,2.95c-.74-.84-1.56-1.47-2.46-1.89s-1.88-.63-2.95-.63c-1,0-1.92.16-2.76.49-.84.33-1.57.8-2.18,1.41s-1.09,1.34-1.43,2.18-.51,1.77-.51,2.79.17,1.96.51,2.79c.34.84.81,1.57,1.43,2.18s1.34,1.09,2.18,1.41c.84.33,1.76.49,2.76.49,1.06,0,2.05-.21,2.95-.63.9-.42,1.72-1.06,2.46-1.92l3.19,2.95c-1.02,1.25-2.29,2.2-3.79,2.86s-3.2.98-5.08.98Z"/>
          <path class="cls-1" d="m161.71,37.13c-1.7,0-3.27-.28-4.71-.83s-2.69-1.33-3.75-2.33-1.87-2.18-2.46-3.53-.88-2.83-.88-4.42.29-3.07.88-4.42,1.41-2.53,2.47-3.53c1.06-1,2.31-1.78,3.75-2.33,1.43-.55,2.99-.83,4.67-.83s3.26.28,4.68.83c1.42.55,2.66,1.33,3.72,2.33,1.05,1,1.88,2.18,2.47,3.52.59,1.34.89,2.82.89,4.44s-.3,3.08-.89,4.44-1.42,2.54-2.47,3.53c-1.06.99-2.29,1.77-3.72,2.32-1.42.55-2.97.83-4.65.83Zm-.03-4.24c.96,0,1.85-.16,2.66-.49.81-.33,1.52-.8,2.13-1.41s1.09-1.34,1.43-2.18c.34-.84.51-1.77.51-2.79s-.17-1.96-.51-2.79c-.34-.84-.81-1.57-1.41-2.18-.6-.61-1.32-1.08-2.13-1.41-.82-.33-1.71-.49-2.67-.49s-1.85.16-2.66.49c-.81.33-1.52.8-2.13,1.41s-1.09,1.34-1.43,2.18-.51,1.77-.51,2.79.17,1.93.51,2.78c.34.85.81,1.58,1.41,2.2.6.61,1.32,1.09,2.13,1.41.82.33,1.71.49,2.67.49Z"/>
          <path class="cls-1" d="m177.19,36.76V15.26h4.12l12.68,15.48h-2v-15.48h4.91v21.5h-4.08l-12.72-15.48h2v15.48h-4.92Z"/>
          <path class="cls-1" d="m209.07,37.13c-1.72,0-3.37-.23-4.94-.69-1.58-.46-2.85-1.06-3.81-1.8l1.69-3.75c.92.66,2.01,1.19,3.27,1.61,1.26.42,2.53.63,3.82.63.98,0,1.78-.1,2.38-.29.6-.19,1.05-.47,1.34-.81.29-.35.43-.75.43-1.2,0-.57-.23-1.03-.68-1.37-.45-.34-1.04-.61-1.78-.83-.74-.21-1.55-.42-2.44-.61-.89-.19-1.78-.43-2.67-.72-.89-.29-1.71-.66-2.44-1.11-.74-.45-1.34-1.04-1.8-1.78-.46-.74-.69-1.68-.69-2.83,0-1.23.33-2.35,1-3.36s1.67-1.82,3.01-2.43c1.34-.6,3.03-.91,5.05-.91,1.35,0,2.68.16,3.99.48,1.31.32,2.47.79,3.47,1.43l-1.54,3.78c-1-.57-2.01-1-3.01-1.27-1-.28-1.99-.42-2.95-.42s-1.75.11-2.37.34c-.61.23-1.05.52-1.32.88-.27.36-.4.77-.4,1.24,0,.55.22,1,.68,1.34.45.34,1.04.61,1.78.81.74.21,1.55.41,2.44.61.89.21,1.78.44,2.67.71.89.27,1.71.62,2.44,1.08.74.45,1.34,1.04,1.8,1.78s.69,1.67.69,2.79c0,1.21-.34,2.31-1.01,3.32-.68,1-1.68,1.81-3.03,2.43-1.34.61-3.04.92-5.08.92Z"/>
          <path class="cls-1" d="m225.75,36.76v-17.45h-6.88v-4.05h18.74v4.05h-6.88v17.45h-4.98Z"/>
          <path class="cls-1" d="m240.28,36.76V15.26h9.18c2.99,0,5.31.69,6.97,2.07s2.49,3.29,2.49,5.73c0,1.6-.38,2.97-1.14,4.13-.76,1.16-1.83,2.04-3.23,2.66s-3.05.92-4.98.92h-6.54l2.21-2.18v8.17h-4.98Zm4.98-7.62l-2.21-2.33h6.27c1.54,0,2.68-.33,3.44-1,.76-.67,1.14-1.58,1.14-2.75s-.38-2.11-1.14-2.76c-.76-.66-1.9-.98-3.44-.98h-6.27l2.21-2.37v12.19Zm8.69,7.62l-5.38-7.8h5.31l5.44,7.8h-5.38Z"/>
          <path class="cls-1" d="m272.41,37.13c-3.05,0-5.44-.85-7.16-2.55-1.72-1.7-2.58-4.13-2.58-7.28v-12.04h4.98v11.86c0,2.05.42,3.52,1.26,4.42.84.9,2.02,1.35,3.53,1.35s2.69-.45,3.53-1.35c.84-.9,1.26-2.38,1.26-4.42v-11.86h4.91v12.04c0,3.15-.86,5.58-2.58,7.28-1.72,1.7-4.11,2.55-7.16,2.55Z"/>
          <path class="cls-1" d="m297.34,37.13c-1.66,0-3.2-.27-4.62-.81s-2.66-1.32-3.7-2.32c-1.04-1-1.86-2.18-2.44-3.53-.58-1.35-.88-2.83-.88-4.45s.29-3.1.88-4.45c.58-1.35,1.4-2.53,2.46-3.53,1.05-1,2.29-1.78,3.7-2.32,1.41-.54,2.96-.81,4.64-.81,1.86,0,3.55.32,5.05.97,1.5.65,2.77,1.59,3.79,2.84l-3.19,2.95c-.74-.84-1.56-1.47-2.46-1.89s-1.88-.63-2.95-.63c-1,0-1.92.16-2.76.49-.84.33-1.57.8-2.18,1.41s-1.09,1.34-1.43,2.18-.51,1.77-.51,2.79.17,1.96.51,2.79c.34.84.81,1.57,1.43,2.18s1.34,1.09,2.18,1.41c.84.33,1.76.49,2.76.49,1.06,0,2.05-.21,2.95-.63.9-.42,1.72-1.06,2.46-1.92l3.19,2.95c-1.02,1.25-2.29,2.2-3.79,2.86s-3.2.98-5.08.98Z"/>
          <path class="cls-1" d="m313.35,36.76v-17.45h-6.88v-4.05h18.74v4.05h-6.88v17.45h-4.98Z"/>
          <path class="cls-1" d="m327.88,36.76V15.26h4.98v21.5h-4.98Z"/>
          <path class="cls-1" d="m348.39,37.13c-1.7,0-3.27-.28-4.71-.83s-2.69-1.33-3.75-2.33-1.87-2.18-2.46-3.53-.88-2.83-.88-4.42.29-3.07.88-4.42,1.41-2.53,2.47-3.53c1.06-1,2.31-1.78,3.75-2.33,1.43-.55,2.99-.83,4.67-.83s3.26.28,4.68.83c1.42.55,2.66,1.33,3.72,2.33,1.05,1,1.88,2.18,2.47,3.52.59,1.34.89,2.82.89,4.44s-.3,3.08-.89,4.44-1.42,2.54-2.47,3.53c-1.06.99-2.29,1.77-3.72,2.32-1.42.55-2.97.83-4.65.83Zm-.03-4.24c.96,0,1.85-.16,2.66-.49.81-.33,1.52-.8,2.13-1.41s1.09-1.34,1.43-2.18c.34-.84.51-1.77.51-2.79s-.17-1.96-.51-2.79c-.34-.84-.81-1.57-1.41-2.18-.6-.61-1.32-1.08-2.13-1.41-.82-.33-1.71-.49-2.67-.49s-1.85.16-2.66.49c-.81.33-1.52.8-2.13,1.41s-1.09,1.34-1.43,2.18-.51,1.77-.51,2.79.17,1.93.51,2.78c.34.85.81,1.58,1.41,2.2.6.61,1.32,1.09,2.13,1.41.82.33,1.71.49,2.67.49Z"/>
          <path class="cls-1" d="m363.87,36.76V15.26h4.12l12.68,15.48h-2v-15.48h4.91v21.5h-4.08l-12.72-15.48h2v15.48h-4.92Z"/>
          <path class="cls-1" d="m395.75,37.13c-1.72,0-3.37-.23-4.94-.69-1.58-.46-2.85-1.06-3.81-1.8l1.69-3.75c.92.66,2.01,1.19,3.27,1.61,1.26.42,2.53.63,3.82.63.98,0,1.78-.1,2.38-.29.6-.19,1.05-.47,1.34-.81.29-.35.43-.75.43-1.2,0-.57-.23-1.03-.68-1.37-.45-.34-1.04-.61-1.78-.83-.74-.21-1.55-.42-2.44-.61-.89-.19-1.78-.43-2.67-.72-.89-.29-1.71-.66-2.44-1.11-.74-.45-1.34-1.04-1.8-1.78-.46-.74-.69-1.68-.69-2.83,0-1.23.33-2.35,1-3.36s1.67-1.82,3.01-2.43c1.34-.6,3.03-.91,5.05-.91,1.35,0,2.68.16,3.99.48,1.31.32,2.47.79,3.47,1.43l-1.54,3.78c-1-.57-2.01-1-3.01-1.27-1-.28-1.99-.42-2.95-.42s-1.75.11-2.37.34c-.61.23-1.05.52-1.32.88-.27.36-.4.77-.4,1.24,0,.55.22,1,.68,1.34.45.34,1.04.61,1.78.81.74.21,1.55.41,2.44.61.89.21,1.78.44,2.67.71.89.27,1.71.62,2.44,1.08.74.45,1.34,1.04,1.8,1.78s.69,1.67.69,2.79c0,1.21-.34,2.31-1.01,3.32-.68,1-1.68,1.81-3.03,2.43-1.34.61-3.04.92-5.08.92Z"/>
        </g>
        <g>
          <path class="cls-1" d="m107.83,59.41v-9.11h.66v9.11h-.66Z"/>
          <path class="cls-1" d="m111.67,59.41v-9.11h.56l6.5,8.29h-.3v-8.29h.66v9.11h-.55l-6.51-8.29h.3v8.29h-.66Z"/>
          <path class="cls-1" d="m124.01,59.41v-8.52h-3.28v-.6h7.23v.6h-3.28v8.52h-.66Z"/>
          <path class="cls-1" d="m129.6,59.41v-9.11h6.09v.6h-5.43v7.92h5.62v.6h-6.29Zm.59-4.34v-.59h4.93v.59h-4.93Z"/>
          <path class="cls-1" d="m138.31,59.41v-9.11h.66v8.52h5.25v.6h-5.91Z"/>
          <path class="cls-1" d="m145.93,59.41v-9.11h.66v8.52h5.25v.6h-5.91Z"/>
          <path class="cls-1" d="m153.54,59.41v-9.11h.66v9.11h-.66Z"/>
          <path class="cls-1" d="m161.28,59.47c-.69,0-1.32-.12-1.9-.35-.58-.23-1.09-.55-1.52-.97s-.76-.91-1-1.46-.35-1.17-.35-1.84.12-1.28.35-1.84c.23-.56.57-1.05,1-1.46.43-.42.94-.74,1.52-.97.58-.23,1.21-.34,1.91-.34.66,0,1.27.1,1.84.31.56.21,1.05.52,1.45.94l-.42.44c-.4-.39-.84-.67-1.31-.83-.47-.17-.99-.25-1.54-.25-.59,0-1.14.1-1.64.3-.5.2-.94.48-1.32.85s-.66.79-.87,1.28c-.2.49-.31,1.02-.31,1.59s.1,1.1.31,1.59c.2.49.49.91.87,1.28.37.36.81.65,1.32.85.5.2,1.05.3,1.64.3.54,0,1.05-.08,1.53-.25.48-.17.92-.44,1.32-.82l.38.51c-.41.39-.9.68-1.46.88-.57.2-1.17.29-1.79.29Zm3.26-1.17l-.64-.08v-3.33h.64v3.41Z"/>
          <path class="cls-1" d="m167.45,59.41v-9.11h6.09v.6h-5.43v7.92h5.62v.6h-6.29Zm.59-4.34v-.59h4.93v.59h-4.93Z"/>
          <path class="cls-1" d="m176.16,59.41v-9.11h.56l6.5,8.29h-.3v-8.29h.66v9.11h-.55l-6.51-8.29h.3v8.29h-.66Z"/>
          <path class="cls-1" d="m188.5,59.41v-8.52h-3.28v-.6h7.23v.6h-3.28v8.52h-.66Z"/>
          <path class="cls-1" d="m201.29,59.47c-.68,0-1.3-.12-1.88-.35-.58-.23-1.08-.55-1.5-.97-.43-.42-.76-.91-.99-1.46s-.35-1.17-.35-1.84.12-1.28.35-1.84c.23-.56.57-1.05,1-1.46.43-.42.93-.74,1.5-.97.57-.23,1.2-.34,1.88-.34s1.24.1,1.8.31,1.04.53,1.44.95l-.42.43c-.39-.38-.82-.66-1.3-.83-.47-.17-.97-.25-1.5-.25-.58,0-1.12.1-1.62.3-.5.2-.93.48-1.3.85-.37.36-.66.79-.86,1.28-.2.49-.31,1.02-.31,1.59s.1,1.1.31,1.59c.2.49.49.91.86,1.28.37.36.8.65,1.3.85.5.2,1.04.3,1.62.3.53,0,1.03-.08,1.5-.25.47-.17.91-.45,1.3-.84l.42.43c-.4.43-.88.74-1.44.96s-1.16.32-1.8.32Z"/>
          <path class="cls-1" d="m210.04,59.47c-.68,0-1.3-.12-1.88-.35-.58-.23-1.08-.55-1.51-.98-.43-.42-.76-.91-1-1.47-.23-.56-.35-1.17-.35-1.83s.12-1.27.35-1.83.57-1.05,1-1.47c.43-.42.93-.75,1.51-.98.58-.23,1.2-.34,1.88-.34s1.3.12,1.88.34c.58.23,1.08.55,1.5.97.43.42.76.9,1,1.46.24.56.36,1.17.36,1.84s-.12,1.28-.36,1.84c-.24.56-.57,1.05-1,1.46-.42.42-.93.74-1.5.97-.58.23-1.2.35-1.88.35Zm0-.61c.58,0,1.12-.1,1.61-.3.5-.2.92-.48,1.29-.85.36-.37.65-.79.85-1.28s.31-1.02.31-1.59-.1-1.11-.31-1.59-.49-.91-.85-1.27-.79-.65-1.29-.85c-.5-.2-1.03-.3-1.61-.3s-1.12.1-1.62.3c-.49.2-.93.48-1.29.85-.37.36-.66.79-.86,1.27-.2.48-.31,1.01-.31,1.59s.1,1.1.31,1.59c.2.49.49.91.86,1.28.37.36.8.65,1.29.85.5.2,1.03.3,1.62.3Z"/>
          <path class="cls-1" d="m217.09,59.41v-9.11h.56l6.5,8.29h-.3v-8.29h.66v9.11h-.55l-6.51-8.29h.3v8.29h-.66Z"/>
          <path class="cls-1" d="m230.08,59.47c-.68,0-1.32-.12-1.92-.35-.6-.23-1.07-.53-1.4-.89l.3-.5c.31.32.74.59,1.28.81.54.22,1.12.33,1.73.33s1.1-.08,1.49-.24c.39-.16.67-.38.86-.64.19-.27.28-.57.28-.9,0-.39-.1-.7-.31-.94s-.48-.42-.82-.56-.71-.26-1.11-.35c-.4-.1-.8-.2-1.21-.31-.41-.11-.78-.25-1.12-.42s-.61-.41-.81-.71c-.2-.3-.31-.69-.31-1.17,0-.43.11-.83.34-1.2.23-.36.58-.66,1.05-.88s1.09-.34,1.84-.34c.5,0,1,.07,1.49.22.49.15.91.35,1.26.6l-.25.53c-.38-.26-.79-.45-1.23-.58-.44-.12-.86-.19-1.27-.19-.58,0-1.06.08-1.45.25-.38.17-.66.38-.85.66-.18.27-.27.58-.27.92,0,.39.1.7.31.94.2.23.47.42.81.56s.71.26,1.12.35c.41.1.81.2,1.21.31.4.11.77.25,1.11.42s.61.41.82.7.31.68.31,1.15c0,.43-.12.82-.35,1.19s-.59.66-1.07.89c-.48.22-1.1.33-1.86.33Z"/>
          <path class="cls-1" d="m237.23,59.41v-8.52h-3.28v-.6h7.23v.6h-3.28v8.52h-.66Z"/>
          <path class="cls-1" d="m242.81,59.41v-9.11h3.27c1.15,0,2.04.27,2.7.81.65.54.98,1.29.98,2.27,0,.63-.15,1.18-.44,1.63-.29.46-.72.81-1.26,1.05-.55.25-1.2.37-1.97.37h-2.9l.3-.31v3.29h-.66Zm.66-3.25l-.3-.31h2.9c.98,0,1.73-.22,2.23-.65.51-.43.76-1.04.76-1.82s-.25-1.4-.76-1.83-1.25-.64-2.23-.64h-2.9l.3-.33v5.59Zm5.66,3.25l-2.37-3.31h.75l2.37,3.31h-.75Z"/>
          <path class="cls-1" d="m255.76,59.47c-1.13,0-2.02-.33-2.67-.99-.65-.66-.98-1.64-.98-2.94v-5.25h.66v5.22c0,1.14.26,1.98.78,2.53.52.55,1.26.82,2.21.82s1.68-.27,2.2-.82c.52-.55.78-1.39.78-2.53v-5.22h.66v5.25c0,1.3-.33,2.28-.98,2.94-.65.66-1.55.99-2.68.99Z"/>
          <path class="cls-1" d="m266.37,59.47c-.68,0-1.3-.12-1.88-.35-.58-.23-1.08-.55-1.5-.97-.43-.42-.76-.91-.99-1.46s-.35-1.17-.35-1.84.12-1.28.35-1.84c.23-.56.57-1.05,1-1.46.43-.42.93-.74,1.5-.97.57-.23,1.2-.34,1.88-.34s1.24.1,1.8.31,1.04.53,1.44.95l-.42.43c-.39-.38-.82-.66-1.3-.83-.47-.17-.97-.25-1.5-.25-.58,0-1.12.1-1.62.3-.5.2-.93.48-1.3.85-.37.36-.66.79-.86,1.28-.2.49-.31,1.02-.31,1.59s.1,1.1.31,1.59c.2.49.49.91.86,1.28.37.36.8.65,1.3.85.5.2,1.04.3,1.62.3.53,0,1.03-.08,1.5-.25.47-.17.91-.45,1.3-.84l.42.43c-.4.43-.88.74-1.44.96s-1.16.32-1.8.32Z"/>
          <path class="cls-1" d="m273.28,59.41v-8.52h-3.28v-.6h7.23v.6h-3.28v8.52h-.66Z"/>
          <path class="cls-1" d="m278.87,59.41v-9.11h.66v9.11h-.66Z"/>
          <path class="cls-1" d="m286.58,59.47c-.68,0-1.3-.12-1.88-.35-.58-.23-1.08-.55-1.51-.98-.43-.42-.76-.91-1-1.47-.23-.56-.35-1.17-.35-1.83s.12-1.27.35-1.83.57-1.05,1-1.47c.43-.42.93-.75,1.51-.98.58-.23,1.2-.34,1.88-.34s1.3.12,1.88.34c.58.23,1.08.55,1.5.97.43.42.76.9,1,1.46.24.56.36,1.17.36,1.84s-.12,1.28-.36,1.84c-.24.56-.57,1.05-1,1.46-.42.42-.93.74-1.5.97-.58.23-1.2.35-1.88.35Zm0-.61c.58,0,1.12-.1,1.61-.3.5-.2.92-.48,1.29-.85.36-.37.65-.79.85-1.28s.31-1.02.31-1.59-.1-1.11-.31-1.59-.49-.91-.85-1.27-.79-.65-1.29-.85c-.5-.2-1.03-.3-1.61-.3s-1.12.1-1.62.3c-.49.2-.93.48-1.29.85-.37.36-.66.79-.86,1.27-.2.48-.31,1.01-.31,1.59s.1,1.1.31,1.59c.2.49.49.91.86,1.28.37.36.8.65,1.29.85.5.2,1.03.3,1.62.3Z"/>
          <path class="cls-1" d="m293.62,59.41v-9.11h.56l6.5,8.29h-.3v-8.29h.66v9.11h-.55l-6.51-8.29h.3v8.29h-.66Z"/>
          <path class="cls-1" d="m309.96,59.47c-.68,0-1.32-.12-1.92-.35-.6-.23-1.07-.53-1.4-.89l.3-.5c.31.32.74.59,1.28.81.54.22,1.12.33,1.73.33s1.1-.08,1.49-.24c.39-.16.67-.38.86-.64.19-.27.28-.57.28-.9,0-.39-.1-.7-.31-.94s-.48-.42-.82-.56-.71-.26-1.11-.35c-.4-.1-.8-.2-1.21-.31-.41-.11-.78-.25-1.12-.42s-.61-.41-.81-.71c-.2-.3-.31-.69-.31-1.17,0-.43.11-.83.34-1.2.23-.36.58-.66,1.05-.88s1.09-.34,1.84-.34c.5,0,1,.07,1.49.22.49.15.91.35,1.26.6l-.25.53c-.38-.26-.79-.45-1.23-.58-.44-.12-.86-.19-1.27-.19-.58,0-1.06.08-1.45.25-.38.17-.66.38-.85.66-.18.27-.27.58-.27.92,0,.39.1.7.31.94.2.23.47.42.81.56s.71.26,1.12.35c.41.1.81.2,1.21.31.4.11.77.25,1.11.42s.61.41.82.7.31.68.31,1.15c0,.43-.12.82-.35,1.19s-.59.66-1.07.89c-.48.22-1.1.33-1.86.33Z"/>
          <path class="cls-1" d="m319.36,59.47c-.68,0-1.3-.12-1.88-.35-.58-.23-1.08-.55-1.51-.98-.43-.42-.76-.91-1-1.47-.23-.56-.35-1.17-.35-1.83s.12-1.27.35-1.83.57-1.05,1-1.47c.43-.42.93-.75,1.51-.98.58-.23,1.2-.34,1.88-.34s1.3.12,1.88.34c.58.23,1.08.55,1.5.97.43.42.76.9,1,1.46.24.56.36,1.17.36,1.84s-.12,1.28-.36,1.84c-.24.56-.57,1.05-1,1.46-.42.42-.93.74-1.5.97-.58.23-1.2.35-1.88.35Zm0-.61c.58,0,1.12-.1,1.61-.3.5-.2.92-.48,1.29-.85.36-.37.65-.79.85-1.28s.31-1.02.31-1.59-.1-1.11-.31-1.59-.49-.91-.85-1.27-.79-.65-1.29-.85c-.5-.2-1.03-.3-1.61-.3s-1.12.1-1.62.3c-.49.2-.93.48-1.29.85-.37.36-.66.79-.86,1.27-.2.48-.31,1.01-.31,1.59s.1,1.1.31,1.59c.2.49.49.91.86,1.28.37.36.8.65,1.29.85.5.2,1.03.3,1.62.3Z"/>
          <path class="cls-1" d="m326.41,59.41v-9.11h.66v8.52h5.25v.6h-5.91Z"/>
          <path class="cls-1" d="m337.41,59.47c-1.13,0-2.02-.33-2.67-.99-.65-.66-.98-1.64-.98-2.94v-5.25h.66v5.22c0,1.14.26,1.98.78,2.53.52.55,1.26.82,2.21.82s1.68-.27,2.2-.82c.52-.55.78-1.39.78-2.53v-5.22h.66v5.25c0,1.3-.33,2.28-.98,2.94-.65.66-1.55.99-2.68.99Z"/>
          <path class="cls-1" d="m345.73,59.41v-8.52h-3.28v-.6h7.23v.6h-3.28v8.52h-.66Z"/>
          <path class="cls-1" d="m351.32,59.41v-9.11h.66v9.11h-.66Z"/>
          <path class="cls-1" d="m359.03,59.47c-.68,0-1.3-.12-1.88-.35-.58-.23-1.08-.55-1.51-.98-.43-.42-.76-.91-1-1.47-.23-.56-.35-1.17-.35-1.83s.12-1.27.35-1.83.57-1.05,1-1.47c.43-.42.93-.75,1.51-.98.58-.23,1.2-.34,1.88-.34s1.3.12,1.88.34c.58.23,1.08.55,1.5.97.43.42.76.9,1,1.46.24.56.36,1.17.36,1.84s-.12,1.28-.36,1.84c-.24.56-.57,1.05-1,1.46-.42.42-.93.74-1.5.97-.58.23-1.2.35-1.88.35Zm0-.61c.58,0,1.12-.1,1.61-.3.5-.2.92-.48,1.29-.85.36-.37.65-.79.85-1.28s.31-1.02.31-1.59-.1-1.11-.31-1.59-.49-.91-.85-1.27-.79-.65-1.29-.85c-.5-.2-1.03-.3-1.61-.3s-1.12.1-1.62.3c-.49.2-.93.48-1.29.85-.37.36-.66.79-.86,1.27-.2.48-.31,1.01-.31,1.59s.1,1.1.31,1.59c.2.49.49.91.86,1.28.37.36.8.65,1.29.85.5.2,1.03.3,1.62.3Z"/>
          <path class="cls-1" d="m366.07,59.41v-9.11h.56l6.5,8.29h-.3v-8.29h.66v9.11h-.55l-6.51-8.29h.3v8.29h-.66Z"/>
          <path class="cls-1" d="m379.06,59.47c-.68,0-1.32-.12-1.92-.35-.6-.23-1.07-.53-1.4-.89l.3-.5c.31.32.74.59,1.28.81.54.22,1.12.33,1.73.33s1.1-.08,1.49-.24c.39-.16.67-.38.86-.64.19-.27.28-.57.28-.9,0-.39-.1-.7-.31-.94s-.48-.42-.82-.56-.71-.26-1.11-.35c-.4-.1-.8-.2-1.21-.31-.41-.11-.78-.25-1.12-.42s-.61-.41-.81-.71c-.2-.3-.31-.69-.31-1.17,0-.43.11-.83.34-1.2.23-.36.58-.66,1.05-.88s1.09-.34,1.84-.34c.5,0,1,.07,1.49.22.49.15.91.35,1.26.6l-.25.53c-.38-.26-.79-.45-1.23-.58-.44-.12-.86-.19-1.27-.19-.58,0-1.06.08-1.45.25-.38.17-.66.38-.85.66-.18.27-.27.58-.27.92,0,.39.1.7.31.94.2.23.47.42.81.56s.71.26,1.12.35c.41.1.81.2,1.21.31.4.11.77.25,1.11.42s.61.41.82.7.31.68.31,1.15c0,.43-.12.82-.35,1.19s-.59.66-1.07.89c-.48.22-1.1.33-1.86.33Z"/>
        </g>
      </g>
      <g>
        <g>
          <polygon class="cls-2" points="70.87 33.32 70.87 59.33 55.12 75.08 15.74 75.08 15.74 51.46 0 51.46 15.74 35.71 31.5 19.96 49.59 19.96 34.46 35.71 31.5 35.71 31.5 59.33 55.12 59.33 55.12 48.73 70.87 33.32"/>
          <polygon class="cls-2" points="31.49 0 31.49 18.15 15.74 33.9 15.74 15.74 31.49 0"/>
        </g>
        <polygon class="cls-2" points="49.59 19.96 34.46 35.71 31.5 38.79 19.33 51.46 0 51.46 31.5 19.96 49.59 19.96"/>
        <polygon class="cls-3" points="15.74 75.08 55.12 75.08 70.87 59.33 31.49 59.33 31.49 19.95 15.74 35.71 15.74 75.08"/>
        <polygon class="cls-3" points="15.74 15.74 31.49 0 31.49 18.15 15.74 33.9 15.74 15.74"/>
      </g>
    </g>
  </g>
</svg>