<?xml version="1.0" encoding="UTF-8"?>
<svg id="Layer_2" data-name="Layer 2" xmlns="http://www.w3.org/2000/svg" viewBox="0 0 1983.09 463.3">
  <defs>
    <style>
      .cls-1 {
        fill: #cf757a;
      }

      .cls-1, .cls-2, .cls-3, .cls-4, .cls-5, .cls-6, .cls-7, .cls-8, .cls-9 {
        stroke-width: 0px;
      }

      .cls-2 {
        fill: #f3f3f3;
      }

      .cls-3 {
        fill: #4d4d4f;
      }

      .cls-4 {
        fill: #7a7a7b;
      }

      .cls-5 {
        fill: #e3e3e3;
      }

      .cls-6 {
        fill: #ddd;
      }

      .cls-7 {
        fill: #1c75bc;
      }

      .cls-8 {
        fill: #fff;
      }

      .cls-9 {
        fill: #f2f2f2;
      }
    </style>
  </defs>
  <g id="Layer_1-2" data-name="Layer 1">
    <g>
      <path class="cls-4" d="m445.28,232.63c3.39-3.42,7.62-1.23,11.45-1.71-.29.54-.37,1.11-.23,1.71h-11.21Z"/>
      <path class="cls-9" d="m136.92,317.07c1.98.01,3.49,1.19,3.66,3.83.19,3.09-1.53,4.62-4.38,4.76-2.51.12-4.08-1.34-4.26-3.88-.21-3.04,1.46-4.52,4.98-4.71"/>
      <path class="cls-2" d="m156.47,332.78c3.06.09,4.61,1.79,4.64,4.53.02,2.29-1.26,4.04-3.71,4.43-3.01.47-4.75-1.31-5-3.95-.26-2.68,1.49-4.41,4.08-5.01"/>
      <path class="cls-6" d="m161.24,317.29c-.81.76-1.61,1.51-2.42,2.27-2.95-1.47-6.04-2.78-7.44-6.87,4.75-1.01,7.04,2.41,9.85,4.6"/>
      <path class="cls-8" d="m177.09,334.14c.75.56,1.5,1.13,2.26,1.69-1.94.82-3.81,4.16-5.86,1.3-.88-1.22,1.72-2.69,3.61-2.99"/>
      <path class="cls-5" d="m162.97,301.28c1.82.75,3.14,1.55,3.08,3.24-.02.58-1.26,1.69-1.49,1.58-1.29-.59-2.44-1.49-3.63-2.28.7-.88,1.4-1.75,2.04-2.55"/>
      <path class="cls-7" d="m389.24,26.93c29.4,7.82,56.97,15.16,84.54,22.5,10.81,2.88,21.65,5.62,32.41,8.66,13.05,3.68,18.56,11.5,15.21,24.41-12.53,48.39-25.66,96.63-38.61,144.91-.21.77-.93,1.4-2.3,3.35-4.57-14.88-8.96-28.68-12.92-42.6-.6-2.11.69-4.82,1.32-7.2,8.05-30.31,15.99-60.65,24.34-90.88,1.76-6.35,1.07-8.87-6.09-10.64-26.84-6.61-53.38-14.43-80.2-21.13-6.98-1.74-10.6-4.92-12.06-11.75-1.28-6.01-3.37-11.84-5.65-19.65"/>
      <path class="cls-1" d="m437.11,285.94c-1.61-1.65-1.48-3.78-1.5-5.83-.01-1.09-.04-2.71,1.61-2.26.81.22,1.27,1.7,1.89,2.61-2.6,1.12-.96,3.79-2.01,5.48"/>
      <path class="cls-3" d="m114.02,0c21.45,7.99,43.93,12.36,65.9,18.51,28.1,7.87,56.37,15.13,86.94,23.29-15.05,5.42-27.95,10.06-40.84,14.71-3.55,1.28-6.73-.45-9.95-1.31-31.81-8.52-63.65-16.95-95.33-25.92-6.2-1.76-7.88-.4-9.35,5.53-4.92,19.89-11.02,39.5-15.62,59.45-2.05,8.87-5.44,14.72-14.93,15.75-5.86.64-7.26,3.47-4.73,8.88,7.22,15.47,5.25,30.67.74,46.83-16.37,58.61-31.48,117.58-47.47,176.3-1.8,6.61-.38,8.37,5.87,9.98,37.3,9.63,74.43,19.91,111.74,29.48,7.75,1.99,12.97,4.97,13.85,13.47.55,5.37,3.25,7.53,8.65,4.82,14.3-7.19,28.37-4.8,43.21-.61,43.06,12.12,86.46,23.03,129.62,34.8,5.9,1.61,7.97.91,9.68-5.22,7.16-25.72,15.09-51.23,22.34-76.92,1.71-6.07,4.21-9.64,10.91-10.52,6.38-.84,12.57-3.06,20.29-5.05-4.79,16.67-9.26,32.3-13.78,47.92-5.96,20.58-11.93,41.15-17.97,61.71-2.05,6.98-4.69,13.61-12.8,15.71-3.59,2.05-7.9-.67-11.45,1.71h-1.87c-88.14-20.62-174.97-46.23-262.57-68.89-22.6-5.85-45.11-12.03-67.7-17.91-8.81-2.3-15.24-6.66-17.41-15.94v-13.08c21.01-88.31,46.26-175.52,69.19-263.33,5.82-22.27,11.89-44.47,17.67-66.75,2.29-8.81,6.66-15.23,15.95-17.4h11.22Z"/>
      <path class="cls-3" d="m403.96,108.59c-1.07-14.96-7.27-26.72-21.32-33.67-7.52-3.7-14.77-7.97-22.12-12-15.33-8.47-30.4-8.84-45.98.06-21.32,12.19-42.46,24.7-62.67,38.61-20.89,14.38-32.44,33.73-30.38,60.07.99,12.71,1.12,25.5,1.01,38.25-.08,8.81.78,17.41-3.23,26.34-3.53,7.85,1.27,17.01,2.62,25.56.64,4.06,1.07,7.24-3.74,10.04-20.94,12.19-41.53,25-62.22,37.6-2.65,1.61-5.57,4.71-8.3,3.5-6.17-2.73-9.98,1.27-14.43,3.63-4.66,2.49-9.05,5.53-13.84,7.72-6.75,3.08-11.33,7.01-10.66,15.39.75,9.42.69,18.74,10.99,23.84,9.46,4.67,18.72,9.78,27.91,14.98,11.35,6.43,13.13,5.78,12.81-7.09-.19-8.06,1.35-13.12,10.71-13.35,3.18-.08,6.54-1.98,9.42-3.7,28.77-17.24,57.53-34.55,86.14-52.07,2.77-1.7,4.75-2.45,7.35-.47,6.04,4.58,12.04,3.29,18.34.3,28.4-13.5,55.68-28.94,81.71-46.59,14.4-9.76,22.29-23.61,26.25-40.35,5.09-21.43,4.84-43.15,5.14-64.94-.5-10.54-.79-21.13-1.51-31.65m-105.08-2.6c-.73,4.13-3.07,4.24-5.83,6.04.93-4.47,3.33-4.47,5.83-6.04m-55.47,59.87c2.77-21.01,13.46-36.96,32.85-46.54,3.66-2.73,7.09-6.02,14.42-6.38-4.58,4.58-8.15,6.82-12.15,8.51-19.35,12.32-30.1,29.86-32.14,52.74-.26,2.95.73,7.16-2.43,8.38-3.16,1.23-4.99-2.94-7.59-4.45-1.1-.62-2.24-1.16-3.38-2.82,8.45,1.05,9.59-2.94,10.43-9.44m-59.87,168.25c-1.2.86-2.79,1.16-4.19,1.72-.95-.32-2.06-.41-2.26-1.68,2.69-3.68-.17-4.39-2.79-5.52-5.54-2.36-11.22-4.51-15.48-9.07-.28-1.93.37-2.82,2.41-2.28,7.24,3.24,14.15,7.2,22.03,8.9,2.34.5,5.81.73,6.13,3.22.45,3.46-3.78,3.22-5.85,4.71m-11.57-40.01c6.34,1.08,9.11,5.83,13.67,9.31-7.12.62-9.37-.95-13.67-9.31m10.98-5.98c4.8-.92,6.71.65,7.5,5.05-3.72-.04-5.33-2.06-7.5-5.05m8.51-5.81c7.67.41,10.06,4.02,13.05,8.75-6.47,0-9.14-3.5-13.05-8.75m11.37-3.51c-.11-.3.54-1.31.92-1.37,4.24-.5,5.14,3.24,8.34,6.92-5.37-.77-7.97-2.24-9.26-5.55m10.81-3.18c-1.2-.82-2.67-2-1.25-3.66,1.1-1.29,2.93-1.44,4.17-.41,3.14,2.62,6.83,4.92,9.12,12.02-5.52-3.63-8.84-5.7-12.04-7.95m8.09-8.88c-.07-.35,1.33-1.51,1.85-1.4,3.53.73,5.14,3.29,6.81,8.53-4.8-2.38-7.96-3.38-8.66-7.12m13.03-76.17c2.84,8.51,2.86,17.5,2.45,26.31-.41,8.56,5.93,10.49,11.26,12.58,5.98,2.37,6.19-4.28,8.9-8.17,3.12,5.82,1.68,11.57,1.44,17.09-.13,3.01-2.51,3.12-4.81,1.95-5.81-2.95-11.63-5.95-17.41-8.98-2.54-1.35-2.54-3.91-3.1-6.38-2.56-11.48-1.08-22.85,1.27-34.4m92.81,36.7c-8.88-21.56.52-43.4-2.52-67.1,4.94,5.35,6.15,46.69,2.52,67.1m39.08-1.35c-8.51,4.47-16.79,9.37-25.2,14.02-2.52,1.38-5.07,3.65-9.39.49,10.83-6.26,20.81-12.19,30.94-17.86,4.15-2.32,7.96-4.3,3.18-9.5-2.37-2.6-1.53-5.89-1.4-8.94.64-16.75,1.33-33.5,2.04-50.26.15-3.42.17-6.6-1.85-9.8-2.79-4.39-5.29-6.3-10.32-2.9-4.62,3.08-9.74,5.42-14.73,7.95-2.04,1.05-4.3,2.71-7.2-.58,8.45-5.03,16.42-10.15,24.75-14.58,5.4-2.9,12.75,5.33,12.88,14.6.21,17.71.11,35.41.15,53.12,0,3.4-.82,7.29,1.48,9.95,7.31,8.4.9,10.99-5.33,14.29m-3.96-126.99c-20.16,12.32-39.75,25.65-60.5,36.89-19.15,10.36-26.47,26.59-29.52,46.63-2.3,15.14,4.82,29.37,2.95,44.52-1.27,10.25,1.2,20.51-5.68,30.33-3.87,5.5-.77,13.91.3,20.94.39,2.66.52,5.44-1.7,6.79-2.8,1.7-5.22-.09-6.94-2.6-2.9-.64-5.35-2.02-7.33-4.21-2.66-1.59-5.31-3.18-7.95-4.77-4.32-1.51-8.02-3.95-12.41-7.78,6.41-1.27,9.48,2.39,12.81,5.35,2.97,1.05,5.61,2.56,7.72,4.94,2.92.84,5.33,2.43,7.26,4.79,4.99-.56,3.52-4.21,3.2-7.07-1.08-9.78-3.85-19.59,2.99-28.74,1.18-1.55-.02-4.8.04-7.27.49-19.86-3.93-39.62-.82-59.55,3.03-19.41,10.96-34.78,28.87-45.21,24.96-14.53,49.1-30.53,73.42-46.14,7.1-4.54,13.67-4.69,22.66,1.46-13.18-1.53-20.88,5.53-29.35,10.71"/>
      <path class="cls-7" d="m409.33,340.19v-97.04h22.6l53.51,64.6h-10.67v-64.6h26.89v97.04h-22.6l-53.51-64.6h10.67v64.6h-26.89Z"/>
      <path class="cls-7" d="m512.47,340.19v-97.04h76.11v21.21h-48.94v54.62h50.74v21.21h-77.91Zm25.23-38.96v-20.52h45.06v20.52h-45.06Z"/>
      <path class="cls-7" d="m623.8,340.19v-75.28h-29.81v-21.77h86.92v21.77h-29.67v75.28h-27.45Z"/>
      <path class="cls-3" d="m725,341.3c-8.04,0-15.2-1.64-21.49-4.92-6.29-3.28-11.21-7.83-14.76-13.66-3.56-5.82-5.34-12.43-5.34-19.82s1.78-14.12,5.34-19.89c3.56-5.77,8.48-10.3,14.76-13.59,6.28-3.28,13.45-4.92,21.49-4.92s14.7,1.64,20.52,4.92c5.82,3.28,10.12,7.97,12.89,14.07l-16.77,9.01c-1.94-3.51-4.37-6.1-7.28-7.76-2.91-1.66-6.08-2.5-9.5-2.5-3.7,0-7.02.83-9.98,2.5-2.96,1.66-5.29,4.02-7,7.07-1.71,3.05-2.56,6.75-2.56,11.09s.85,8.04,2.56,11.09c1.71,3.05,4.04,5.41,7,7.07,2.96,1.66,6.28,2.5,9.98,2.5,3.42,0,6.58-.81,9.5-2.43,2.91-1.62,5.34-4.23,7.28-7.83l16.77,9.15c-2.77,6.01-7.07,10.65-12.89,13.93-5.82,3.28-12.66,4.92-20.52,4.92Z"/>
      <path class="cls-3" d="m803.05,341.3c-7.95,0-15-1.66-21.14-4.99-6.15-3.33-11-7.88-14.56-13.66-3.56-5.78-5.34-12.36-5.34-19.75s1.78-14.12,5.34-19.89c3.56-5.77,8.41-10.3,14.56-13.59,6.15-3.28,13.19-4.92,21.14-4.92s14.88,1.64,21.07,4.92c6.19,3.28,11.04,7.79,14.56,13.52,3.51,5.73,5.27,12.39,5.27,19.96s-1.76,13.98-5.27,19.75c-3.51,5.78-8.37,10.33-14.56,13.66-6.19,3.33-13.22,4.99-21.07,4.99Zm0-17.75c3.6,0,6.84-.83,9.7-2.5,2.86-1.66,5.13-4.04,6.79-7.14,1.66-3.09,2.5-6.77,2.5-11.02s-.83-8.04-2.5-11.09-3.93-5.41-6.79-7.07c-2.87-1.66-6.1-2.5-9.7-2.5s-6.84.83-9.7,2.5c-2.87,1.66-5.15,4.02-6.86,7.07-1.71,3.05-2.56,6.75-2.56,11.09s.85,7.93,2.56,11.02c1.71,3.1,4,5.48,6.86,7.14,2.86,1.66,6.1,2.5,9.7,2.5Z"/>
      <path class="cls-3" d="m880.96,341.3c-6.38,0-12.5-.76-18.37-2.29-5.87-1.52-10.51-3.44-13.93-5.75l7.21-15.53c3.42,2.13,7.46,3.86,12.13,5.2,4.67,1.34,9.26,2.01,13.79,2.01,4.99,0,8.53-.6,10.61-1.8,2.08-1.2,3.12-2.86,3.12-4.99,0-1.75-.81-3.07-2.43-3.95-1.62-.88-3.77-1.55-6.45-2.01-2.68-.46-5.61-.92-8.8-1.39-3.19-.46-6.4-1.08-9.64-1.87-3.24-.78-6.19-1.96-8.87-3.54-2.68-1.57-4.83-3.7-6.45-6.38-1.62-2.68-2.43-6.15-2.43-10.4,0-4.71,1.36-8.87,4.09-12.48,2.73-3.6,6.68-6.45,11.85-8.53,5.18-2.08,11.37-3.12,18.58-3.12,5.08,0,10.26.55,15.53,1.66s9.66,2.73,13.17,4.85l-7.21,15.39c-3.6-2.12-7.23-3.58-10.88-4.37-3.65-.78-7.19-1.18-10.61-1.18-4.81,0-8.32.65-10.54,1.94-2.22,1.3-3.33,2.96-3.33,4.99,0,1.85.81,3.24,2.43,4.16,1.62.92,3.77,1.66,6.45,2.22,2.68.55,5.61,1.04,8.8,1.46,3.19.42,6.4,1.04,9.63,1.87,3.23.83,6.17,2.01,8.8,3.54,2.63,1.53,4.78,3.6,6.45,6.24,1.66,2.63,2.5,6.08,2.5,10.33,0,4.62-1.39,8.71-4.16,12.27-2.77,3.56-6.77,6.36-11.99,8.39-5.22,2.03-11.58,3.05-19.06,3.05Z"/>
      <path class="cls-3" d="m918.25,282.25v-16.64h51.71v16.64h-51.71Zm39.37,59.06c-8.78,0-15.62-2.24-20.52-6.72-4.9-4.48-7.35-11.16-7.35-20.03v-65.43h21.63v65.16c0,3.14.83,5.57,2.5,7.28,1.66,1.71,3.93,2.57,6.79,2.57,3.42,0,6.33-.92,8.73-2.77l5.82,15.25c-2.22,1.57-4.88,2.75-7.97,3.54-3.1.78-6.31,1.18-9.64,1.18Z"/>
      <g>
        <path class="cls-7" d="m1020.01,341.03c-7.86,0-14.76-1.62-20.73-4.85-5.96-3.23-10.58-7.67-13.86-13.31-3.28-5.64-4.92-12.11-4.92-19.41s1.59-13.77,4.78-19.41c3.19-5.64,7.58-10.05,13.17-13.24,5.59-3.19,11.9-4.78,18.92-4.78s13.4,1.57,18.85,4.71c5.45,3.14,9.73,7.55,12.82,13.24,3.1,5.68,4.64,12.32,4.64,19.89,0,.55-.02,1.2-.07,1.94-.05.74-.12,1.43-.21,2.08h-62.52v-9.57h55.59l-5.41,3.33c.09-4.71-.88-8.92-2.91-12.62-2.03-3.7-4.83-6.58-8.39-8.66-3.56-2.08-7.69-3.12-12.41-3.12s-8.73,1.04-12.34,3.12c-3.6,2.08-6.42,4.99-8.46,8.73-2.03,3.74-3.05,8.02-3.05,12.82v2.22c0,4.9,1.13,9.27,3.4,13.1,2.26,3.84,5.43,6.82,9.5,8.94,4.07,2.13,8.73,3.19,14,3.19,4.34,0,8.29-.74,11.85-2.22,3.56-1.48,6.68-3.7,9.36-6.65l7.35,8.59c-3.33,3.88-7.46,6.84-12.41,8.87-4.95,2.03-10.47,3.05-16.57,3.05Z"/>
        <path class="cls-7" d="m1089.61,341.03c-6.1,0-11.9-.83-17.4-2.5-5.5-1.66-9.82-3.7-12.96-6.1l5.55-10.54c3.14,2.13,7.02,3.93,11.65,5.41,4.62,1.48,9.33,2.22,14.14,2.22,6.19,0,10.65-.88,13.38-2.63,2.73-1.75,4.09-4.21,4.09-7.35,0-2.31-.83-4.11-2.5-5.41-1.66-1.29-3.86-2.26-6.58-2.91-2.73-.65-5.75-1.22-9.08-1.73-3.33-.51-6.65-1.16-9.98-1.94-3.33-.78-6.38-1.89-9.15-3.33-2.77-1.43-4.99-3.42-6.65-5.96-1.66-2.54-2.5-5.94-2.5-10.19s1.25-8.32,3.74-11.65c2.5-3.33,6.03-5.89,10.61-7.69,4.57-1.8,10-2.7,16.29-2.7,4.8,0,9.68.58,14.63,1.73,4.94,1.16,8.99,2.8,12.13,4.92l-5.68,10.54c-3.33-2.22-6.79-3.74-10.4-4.58-3.6-.83-7.21-1.25-10.81-1.25-5.82,0-10.17.95-13.03,2.84-2.87,1.9-4.3,4.32-4.3,7.28,0,2.5.85,4.41,2.56,5.75,1.71,1.34,3.93,2.38,6.65,3.12,2.73.74,5.75,1.37,9.08,1.87,3.33.51,6.65,1.16,9.98,1.94,3.33.79,6.35,1.87,9.08,3.26,2.73,1.39,4.94,3.33,6.65,5.82,1.71,2.5,2.56,5.82,2.56,9.98,0,4.44-1.3,8.27-3.88,11.51-2.59,3.24-6.24,5.75-10.95,7.56-4.71,1.8-10.35,2.7-16.91,2.7Z"/>
        <path class="cls-7" d="m1123.85,277.67v-10.95h46.86v10.95h-46.86Zm35.77,63.36c-7.4,0-13.12-1.99-17.19-5.96-4.07-3.97-6.1-9.66-6.1-17.05v-67.38h13.31v66.82c0,3.98.99,7.03,2.98,9.15,1.99,2.13,4.83,3.19,8.53,3.19,4.16,0,7.62-1.15,10.4-3.47l4.16,9.57c-2.03,1.76-4.46,3.05-7.28,3.88-2.82.83-5.75,1.25-8.8,1.25Z"/>
        <path class="cls-7" d="m1194.83,252.58c-2.59,0-4.74-.83-6.45-2.5-1.71-1.66-2.56-3.7-2.56-6.1s.85-4.58,2.56-6.24c1.71-1.66,3.86-2.5,6.45-2.5s4.74.81,6.45,2.43c1.71,1.62,2.56,3.63,2.56,6.03s-.83,4.6-2.5,6.31c-1.66,1.71-3.84,2.57-6.52,2.57Zm-6.65,87.62v-73.48h13.31v73.48h-13.31Z"/>
        <path class="cls-7" d="m1223.24,340.19v-73.48h12.75v19.55l-2.08-4.99c2.31-4.8,5.87-8.55,10.67-11.23,4.8-2.68,10.4-4.02,16.77-4.02,7.02,0,13.08,1.73,18.16,5.2,5.08,3.47,8.41,8.71,9.98,15.74l-5.41-2.22c2.22-5.64,6.1-10.17,11.65-13.59,5.55-3.42,12.01-5.13,19.41-5.13,5.91,0,11.14,1.16,15.67,3.47,4.53,2.31,8.06,5.82,10.61,10.54,2.54,4.71,3.81,10.67,3.81,17.88v42.28h-13.31v-40.76c0-7.12-1.66-12.48-4.99-16.08-3.33-3.6-8-5.41-14-5.41-4.44,0-8.32.92-11.65,2.77-3.33,1.85-5.89,4.57-7.69,8.18s-2.7,8.09-2.7,13.45v37.85h-13.31v-40.76c0-7.12-1.64-12.48-4.92-16.08-3.28-3.6-7.97-5.41-14.07-5.41-4.35,0-8.18.92-11.51,2.77-3.33,1.85-5.92,4.57-7.76,8.18-1.85,3.6-2.77,8.09-2.77,13.45v37.85h-13.31Z"/>
        <path class="cls-7" d="m1387.66,341.03c-5.45,0-10.24-.92-14.35-2.77-4.11-1.85-7.28-4.41-9.5-7.69-2.22-3.28-3.33-7-3.33-11.16s.95-7.58,2.84-10.81c1.89-3.23,4.99-5.82,9.29-7.76,4.3-1.94,10.1-2.91,17.4-2.91h23.29v9.57h-22.74c-6.65,0-11.14,1.11-13.45,3.33-2.31,2.22-3.47,4.9-3.47,8.04,0,3.6,1.43,6.49,4.3,8.67,2.86,2.17,6.84,3.26,11.92,3.26s9.36-1.11,13.1-3.33c3.74-2.22,6.45-5.45,8.11-9.71l2.63,9.15c-1.76,4.34-4.85,7.79-9.29,10.33-4.44,2.54-10.03,3.81-16.77,3.81Zm24.12-.83v-15.53l-.69-2.91v-26.48c0-5.64-1.64-10-4.92-13.1-3.28-3.09-8.2-4.64-14.76-4.64-4.35,0-8.6.72-12.75,2.15-4.16,1.43-7.67,3.35-10.54,5.75l-5.55-9.98c3.79-3.05,8.34-5.38,13.66-7,5.31-1.62,10.88-2.43,16.71-2.43,10.07,0,17.84,2.45,23.29,7.35,5.45,4.9,8.18,12.39,8.18,22.46v44.36h-12.62Z"/>
      </g>
      <path class="cls-7" d="m1434.11,277.67v-10.95h46.86v10.95h-46.86Zm35.77,63.36c-7.4,0-13.12-1.99-17.19-5.96-4.07-3.97-6.1-9.66-6.1-17.05v-67.38h13.31v66.82c0,3.98.99,7.03,2.98,9.15,1.99,2.13,4.83,3.19,8.53,3.19,4.16,0,7.62-1.15,10.4-3.47l4.16,9.57c-2.03,1.76-4.46,3.05-7.28,3.88-2.82.83-5.75,1.25-8.8,1.25Z"/>
      <path class="cls-7" d="m1527.27,341.03c-7.4,0-13.96-1.62-19.69-4.85-5.73-3.23-10.26-7.69-13.59-13.38s-4.99-12.13-4.99-19.34,1.66-13.77,4.99-19.41c3.33-5.64,7.85-10.05,13.59-13.24,5.73-3.19,12.29-4.78,19.69-4.78s13.84,1.59,19.62,4.78c5.77,3.19,10.3,7.58,13.59,13.17,3.28,5.59,4.92,12.08,4.92,19.48s-1.64,13.77-4.92,19.41c-3.28,5.64-7.81,10.07-13.59,13.31-5.78,3.24-12.32,4.85-19.62,4.85Zm0-11.65c4.71,0,8.94-1.06,12.69-3.19,3.74-2.12,6.68-5.15,8.8-9.08,2.12-3.93,3.19-8.48,3.19-13.66s-1.06-9.82-3.19-13.66c-2.13-3.83-5.06-6.81-8.8-8.94-3.74-2.12-7.97-3.19-12.69-3.19s-8.92,1.06-12.62,3.19c-3.7,2.13-6.65,5.11-8.87,8.94-2.22,3.84-3.33,8.39-3.33,13.66s1.11,9.73,3.33,13.66c2.22,3.93,5.18,6.96,8.87,9.08,3.7,2.13,7.9,3.19,12.62,3.19Z"/>
      <path class="cls-7" d="m1580.09,340.19v-73.48h12.75v19.96l-1.25-4.99c2.03-5.08,5.45-8.96,10.26-11.64,4.8-2.68,10.72-4.02,17.75-4.02v12.89c-.55-.09-1.09-.14-1.59-.14h-1.46c-7.12,0-12.75,2.13-16.91,6.38-4.16,4.25-6.24,10.4-6.24,18.44v36.6h-13.31Z"/>
      <path class="cls-7" d="m1967.96,387.66h-299.04c-8.35,0-15.13-6.77-15.13-15.13v-144.83c0-8.36,6.77-15.13,15.13-15.13h299.04c8.35,0,15.13,6.77,15.13,15.13v144.83c0,8.36-6.77,15.13-15.13,15.13"/>
      <g>
        <path class="cls-8" d="m1704.71,346.19v-97.04h42.01c8.69,0,16.17,1.41,22.46,4.23,6.28,2.82,11.14,6.86,14.56,12.13,3.42,5.27,5.13,11.55,5.13,18.85s-1.71,13.45-5.13,18.72c-3.42,5.27-8.27,9.31-14.56,12.13-6.29,2.82-13.77,4.23-22.46,4.23h-29.53l9.98-10.12v36.88h-22.46Zm22.46-34.38l-9.98-10.67h28.28c6.93,0,12.11-1.48,15.53-4.44,3.42-2.96,5.13-7.07,5.13-12.34s-1.71-9.52-5.13-12.48c-3.42-2.96-8.6-4.44-15.53-4.44h-28.28l9.98-10.67v55.04Z"/>
        <path class="cls-8" d="m1794.96,346.19v-74.58h20.66v21.07l-2.91-6.1c2.22-5.27,5.77-9.26,10.67-11.99,4.9-2.72,10.86-4.09,17.88-4.09v19.96c-.92-.09-1.76-.16-2.5-.21-.74-.05-1.52-.07-2.36-.07-5.92,0-10.7,1.69-14.35,5.06-3.65,3.38-5.48,8.62-5.48,15.74v35.21h-21.63Z"/>
      </g>
      <path class="cls-8" d="m1880.22,347.3c-7.95,0-15-1.66-21.14-4.99-6.15-3.33-11-7.88-14.56-13.66-3.56-5.78-5.34-12.36-5.34-19.75s1.78-14.12,5.34-19.89c3.56-5.77,8.41-10.3,14.56-13.59,6.15-3.28,13.19-4.92,21.14-4.92s14.88,1.64,21.07,4.92c6.19,3.28,11.04,7.79,14.56,13.52,3.51,5.73,5.27,12.39,5.27,19.96s-1.76,13.98-5.27,19.75c-3.51,5.78-8.37,10.33-14.56,13.66-6.19,3.33-13.22,4.99-21.07,4.99Zm0-17.75c3.6,0,6.84-.83,9.7-2.5,2.86-1.66,5.13-4.04,6.79-7.14,1.66-3.09,2.5-6.77,2.5-11.02s-.83-8.04-2.5-11.09-3.93-5.41-6.79-7.07c-2.87-1.66-6.1-2.5-9.7-2.5s-6.84.83-9.7,2.5c-2.87,1.66-5.15,4.02-6.86,7.07-1.71,3.05-2.56,6.75-2.56,11.09s.85,7.93,2.56,11.02c1.71,3.1,4,5.48,6.86,7.14,2.86,1.66,6.1,2.5,9.7,2.5Z"/>
    </g>
  </g>
</svg>